STARTFONT 2.1
FONT -FontForge-Frutiger LT 55 Roman-Book-R-Normal--26-250-75-75-P-139-ISO8859-1
SIZE 25 75 75
FONTBOUNDINGBOX 30 31 -4 -7
COMMENT "Generated by fontforge, http://fontforge.sourceforge.net"
COMMENT "Part of the digitally encoded machine readable outline data for producing the Typefaces provided is copyrighted (c) 1988, 1990, 1994, 2001, 2002, 2003, Linotype Library GmbH, www.linotype.com. All rights reserved. This software is the property of Linotype Library GmbH, and may not be reproduced, used, displayed, modified, disclosed or transferred Library GmbH. Copyright (c) 1988, 1990, 1994, 2001, 2002, 2003, Adobe Systems Incorporated. All rights reserved."
STARTPROPERTIES 40
FOUNDRY "FontForge"
FAMILY_NAME "Frutiger LT 55 Roman"
WEIGHT_NAME "Book"
SLANT "R"
SETWIDTH_NAME "Normal"
ADD_STYLE_NAME ""
PIXEL_SIZE 26
POINT_SIZE 250
RESOLUTION_X 75
RESOLUTION_Y 75
SPACING "P"
AVERAGE_WIDTH 139
CHARSET_REGISTRY "ISO8859"
CHARSET_ENCODING "1"
FONTNAME_REGISTRY ""
CHARSET_COLLECTIONS "ISOLatin1Encoding"
FONT_NAME "FrutigerLT-Roman"
FACE_NAME "Frutiger LT 55 Roman"
COPYRIGHT "Part of the digitally encoded machine readable outline data for producing the Typefaces provided is copyrighted (c) 1988, 1990, 1994, 2001, 2002, 2003, Linotype Library GmbH, www.linotype.com. All rights reserved. This software is the property of Linotype Library GmbH, and may not be reproduced, used, displayed, modified, disclosed or transferred Library GmbH. Copyright (c) 1988, 1990, 1994, 2001, 2002, 2003, Adobe Systems Incorporated. All rights reserved."
FONT_VERSION "6.04"
FONT_ASCENT 21
FONT_DESCENT 5
UNDERLINE_POSITION -3
UNDERLINE_THICKNESS 2
X_HEIGHT 12
CAP_HEIGHT 17
RAW_ASCENT 800
RAW_DESCENT 200
NORM_SPACE 7
RELATIVE_WEIGHT 40
RELATIVE_SETWIDTH 50
SUPERSCRIPT_X 0
SUPERSCRIPT_Y 7
SUPERSCRIPT_SIZE 5
SUBSCRIPT_X 0
SUBSCRIPT_Y 7
SUBSCRIPT_SIZE 5
FIGURE_WIDTH 14
AVG_LOWERCASE_WIDTH 138
AVG_UPPERCASE_WIDTH 167
ENDPROPERTIES
CHARS 232
STARTCHAR space
ENCODING 32
SWIDTH 278 0
DWIDTH 7 0
BBX 1 1 0 0
BITMAP
00
ENDCHAR
STARTCHAR exclam
ENCODING 33
SWIDTH 389 0
DWIDTH 10 0
BBX 3 18 4 0
BITMAP
E0
E0
E0
E0
E0
E0
E0
E0
E0
E0
E0
E0
E0
00
00
E0
E0
E0
ENDCHAR
STARTCHAR quotedbl
ENCODING 34
SWIDTH 556 0
DWIDTH 14 0
BBX 6 6 4 12
BITMAP
CC
CC
CC
CC
CC
CC
ENDCHAR
STARTCHAR numbersign
ENCODING 35
SWIDTH 556 0
DWIDTH 14 0
BBX 13 18 0 0
BITMAP
0E30
0C60
0C60
0C60
0C60
7FF8
7FF8
18C0
18C0
18C0
18C0
FFF8
FFF8
18C0
18C0
3180
3180
3180
ENDCHAR
STARTCHAR dollar
ENCODING 36
SWIDTH 556 0
DWIDTH 14 0
BBX 11 24 2 -3
BITMAP
0600
0600
0600
1FC0
3FC0
7640
E600
E600
E600
7600
7E00
1F00
07C0
07C0
06E0
06E0
06E0
06E0
47C0
7FC0
FF00
0600
0600
0600
ENDCHAR
STARTCHAR percent
ENCODING 37
SWIDTH 1000 0
DWIDTH 26 0
BBX 20 20 3 -1
BITMAP
000300
3C0600
7E0600
E30C00
C30C00
C31800
C31000
C33000
E76000
7E63C0
3CC7E0
00CE30
018C30
018C30
030C30
020C30
060E70
0C07E0
0C03C0
180000
ENDCHAR
STARTCHAR ampersand
ENCODING 38
SWIDTH 722 0
DWIDTH 19 0
BBX 16 18 2 0
BITMAP
0F80
1FE0
38E0
3860
3860
38E0
1DC0
0F80
1E0E
3F0E
738C
E1CC
E0FC
E078
E038
70FC
7FFE
1F8F
ENDCHAR
STARTCHAR quotesingle
ENCODING 39
SWIDTH 278 0
DWIDTH 7 0
BBX 2 6 2 12
BITMAP
C0
C0
C0
C0
C0
C0
ENDCHAR
STARTCHAR parenleft
ENCODING 40
SWIDTH 333 0
DWIDTH 9 0
BBX 7 23 2 -4
BITMAP
0E
1C
18
38
38
70
70
70
E0
E0
E0
E0
E0
E0
E0
70
70
70
30
38
18
1C
0E
ENDCHAR
STARTCHAR parenright
ENCODING 41
SWIDTH 333 0
DWIDTH 9 0
BBX 7 23 0 -4
BITMAP
E0
70
30
38
18
1C
1C
1C
0E
0E
0E
0E
0E
0E
0E
1C
1C
1C
38
38
30
70
E0
ENDCHAR
STARTCHAR asterisk
ENCODING 42
SWIDTH 556 0
DWIDTH 14 0
BBX 11 10 2 8
BITMAP
0E00
0E00
8E40
E6E0
FFE0
0E00
1F00
3B80
71C0
2180
ENDCHAR
STARTCHAR plus
ENCODING 43
SWIDTH 600 0
DWIDTH 16 0
BBX 12 12 2 1
BITMAP
0600
0600
0600
0600
0600
FFF0
FFF0
0600
0600
0600
0600
0600
ENDCHAR
STARTCHAR comma
ENCODING 44
SWIDTH 278 0
DWIDTH 7 0
BBX 5 6 0 -3
BITMAP
38
30
70
70
60
E0
ENDCHAR
STARTCHAR hyphen
ENCODING 45
SWIDTH 333 0
DWIDTH 9 0
BBX 7 2 1 6
BITMAP
FE
FE
ENDCHAR
STARTCHAR period
ENCODING 46
SWIDTH 278 0
DWIDTH 7 0
BBX 3 3 2 0
BITMAP
E0
E0
E0
ENDCHAR
STARTCHAR slash
ENCODING 47
SWIDTH 278 0
DWIDTH 7 0
BBX 8 18 -1 0
BITMAP
03
03
06
06
06
0C
0C
0C
18
18
18
30
30
30
60
60
60
C0
ENDCHAR
STARTCHAR zero
ENCODING 48
SWIDTH 556 0
DWIDTH 14 0
BBX 13 18 1 0
BITMAP
0F80
3FC0
38E0
70F0
7070
E070
E070
E070
E038
E038
E070
E070
E070
7070
70F0
38E0
3FC0
0F80
ENDCHAR
STARTCHAR one
ENCODING 49
SWIDTH 556 0
DWIDTH 14 0
BBX 7 18 3 0
BITMAP
0E
3E
7E
EE
4E
0E
0E
0E
0E
0E
0E
0E
0E
0E
0E
0E
0E
0E
ENDCHAR
STARTCHAR two
ENCODING 50
SWIDTH 556 0
DWIDTH 14 0
BBX 11 18 2 0
BITMAP
3F00
FFC0
C3C0
00E0
00E0
00E0
00E0
01C0
01C0
0380
0700
0E00
1C00
3800
F000
E000
FFE0
FFE0
ENDCHAR
STARTCHAR three
ENCODING 51
SWIDTH 556 0
DWIDTH 14 0
BBX 12 18 1 0
BITMAP
3F80
7FC0
61E0
00F0
0070
0070
00E0
03E0
1F80
1FC0
00E0
0070
0070
0070
00F0
41E0
7FC0
FF80
ENDCHAR
STARTCHAR four
ENCODING 52
SWIDTH 556 0
DWIDTH 14 0
BBX 13 18 1 0
BITMAP
01E0
03E0
07E0
06E0
0EE0
1CE0
1CE0
38E0
30E0
70E0
E0E0
E0E0
FFF8
FFF8
00E0
00E0
00E0
00E0
ENDCHAR
STARTCHAR five
ENCODING 53
SWIDTH 556 0
DWIDTH 14 0
BBX 11 18 2 0
BITMAP
FFC0
FFC0
E000
E000
E000
E000
E000
FE00
FF80
03C0
01E0
00E0
00E0
00E0
01E0
83C0
FF80
FE00
ENDCHAR
STARTCHAR six
ENCODING 54
SWIDTH 556 0
DWIDTH 14 0
BBX 12 18 1 0
BITMAP
07E0
1FE0
3C20
7800
7000
F000
E000
E780
FFE0
F8E0
F070
E070
E070
E070
7070
78E0
3FC0
0F80
ENDCHAR
STARTCHAR seven
ENCODING 55
SWIDTH 556 0
DWIDTH 14 0
BBX 12 18 1 0
BITMAP
FFF0
FFF0
0060
00E0
00E0
01C0
01C0
0180
0380
0300
0700
0700
0E00
0E00
0C00
1C00
1C00
3800
ENDCHAR
STARTCHAR eight
ENCODING 56
SWIDTH 556 0
DWIDTH 14 0
BBX 13 18 1 0
BITMAP
1F80
3FE0
78F0
F070
E070
7070
78E0
3FC0
0F80
3FE0
70F0
E070
E038
E038
F078
78F0
3FE0
1F80
ENDCHAR
STARTCHAR nine
ENCODING 57
SWIDTH 556 0
DWIDTH 14 0
BBX 12 18 1 0
BITMAP
1F00
3FC0
71E0
E0E0
E070
E070
E070
E0F0
71F0
7FF0
1E70
0070
00F0
00E0
01E0
43C0
7F80
7E00
ENDCHAR
STARTCHAR colon
ENCODING 58
SWIDTH 278 0
DWIDTH 7 0
BBX 3 13 2 0
BITMAP
E0
E0
E0
00
00
00
00
00
00
00
E0
E0
E0
ENDCHAR
STARTCHAR semicolon
ENCODING 59
SWIDTH 278 0
DWIDTH 7 0
BBX 5 16 0 -3
BITMAP
38
38
38
00
00
00
00
00
00
00
38
30
70
70
60
E0
ENDCHAR
STARTCHAR less
ENCODING 60
SWIDTH 600 0
DWIDTH 16 0
BBX 13 14 1 0
BITMAP
0008
0038
00F8
03E0
1F80
7C00
F000
F000
7C00
1F80
03E0
00F8
0038
0008
ENDCHAR
STARTCHAR equal
ENCODING 61
SWIDTH 600 0
DWIDTH 16 0
BBX 13 7 1 3
BITMAP
FFF8
FFF8
0000
0000
0000
FFF8
FFF8
ENDCHAR
STARTCHAR greater
ENCODING 62
SWIDTH 600 0
DWIDTH 16 0
BBX 13 14 1 0
BITMAP
8000
E000
F800
3E00
0FC0
01F0
0078
0078
01F0
0FC0
3E00
F800
E000
8000
ENDCHAR
STARTCHAR question
ENCODING 63
SWIDTH 500 0
DWIDTH 13 0
BBX 10 18 2 0
BITMAP
7E00
FF00
C780
03C0
01C0
01C0
0380
0380
0700
0E00
0C00
1C00
1C00
0000
0000
1C00
1C00
1C00
ENDCHAR
STARTCHAR at
ENCODING 64
SWIDTH 800 0
DWIDTH 21 0
BBX 17 18 1 0
BITMAP
03F000
0FFC00
1C0E00
300300
71C180
63ED80
E7B880
CE1880
CC1880
CC1980
CC3180
CE7300
6FFE00
67BC00
300380
1C0600
0FFC00
03F000
ENDCHAR
STARTCHAR A
ENCODING 65
SWIDTH 722 0
DWIDTH 19 0
BBX 18 18 0 0
BITMAP
00E000
01E000
01F000
03B000
033800
031800
071C00
061C00
0E0C00
0C0E00
1C0600
1FFF00
1FFF00
380380
380380
700180
7001C0
E001C0
ENDCHAR
STARTCHAR B
ENCODING 66
SWIDTH 611 0
DWIDTH 16 0
BBX 12 18 2 0
BITMAP
FF80
FFC0
E1E0
E0F0
E070
E070
E0E0
E1E0
FFC0
FF80
E1E0
E070
E070
E070
E070
E1F0
FFE0
FF80
ENDCHAR
STARTCHAR C
ENCODING 67
SWIDTH 611 0
DWIDTH 16 0
BBX 14 18 1 0
BITMAP
03F8
0FFC
1F0C
3C00
7800
7000
E000
E000
E000
E000
E000
E000
7000
7800
3C00
1F0C
0FFC
03F8
ENDCHAR
STARTCHAR D
ENCODING 68
SWIDTH 722 0
DWIDTH 19 0
BBX 15 18 2 0
BITMAP
FF80
FFE0
E1F8
E038
E01C
E01E
E00E
E00E
E00E
E00E
E00E
E00E
E00E
E01C
E03C
E1F8
FFF0
FF80
ENDCHAR
STARTCHAR E
ENCODING 69
SWIDTH 556 0
DWIDTH 14 0
BBX 10 18 2 0
BITMAP
FFC0
FFC0
E000
E000
E000
E000
E000
E000
FFC0
FFC0
E000
E000
E000
E000
E000
E000
FFC0
FFC0
ENDCHAR
STARTCHAR F
ENCODING 70
SWIDTH 500 0
DWIDTH 13 0
BBX 10 18 2 0
BITMAP
FFC0
FFC0
E000
E000
E000
E000
E000
E000
FF80
FF80
E000
E000
E000
E000
E000
E000
E000
E000
ENDCHAR
STARTCHAR G
ENCODING 71
SWIDTH 722 0
DWIDTH 19 0
BBX 16 18 1 0
BITMAP
01FC
07FF
1F87
3C00
3800
7000
7000
7000
F07F
707F
7007
7007
7007
3807
3C07
1F87
0FFF
01FE
ENDCHAR
STARTCHAR H
ENCODING 72
SWIDTH 722 0
DWIDTH 19 0
BBX 14 18 2 0
BITMAP
E01C
E01C
E01C
E01C
E01C
E01C
E01C
E01C
FFFC
FFFC
E01C
E01C
E01C
E01C
E01C
E01C
E01C
E01C
ENDCHAR
STARTCHAR I
ENCODING 73
SWIDTH 278 0
DWIDTH 7 0
BBX 3 18 2 0
BITMAP
E0
E0
E0
E0
E0
E0
E0
E0
E0
E0
E0
E0
E0
E0
E0
E0
E0
E0
ENDCHAR
STARTCHAR J
ENCODING 74
SWIDTH 389 0
DWIDTH 10 0
BBX 8 18 0 0
BITMAP
07
07
07
07
07
07
07
07
07
07
07
07
07
07
07
9F
FE
F8
ENDCHAR
STARTCHAR K
ENCODING 75
SWIDTH 667 0
DWIDTH 17 0
BBX 15 18 2 0
BITMAP
E03C
E078
E0F0
E1E0
E3C0
E780
EF00
FE00
FC00
FE00
EF00
E780
E3C0
E1E0
E0F0
E070
E038
E03E
ENDCHAR
STARTCHAR L
ENCODING 76
SWIDTH 500 0
DWIDTH 13 0
BBX 10 18 2 0
BITMAP
E000
E000
E000
E000
E000
E000
E000
E000
E000
E000
E000
E000
E000
E000
E000
E000
FFC0
FFC0
ENDCHAR
STARTCHAR M
ENCODING 77
SWIDTH 944 0
DWIDTH 25 0
BBX 19 18 3 0
BITMAP
F001E0
F803E0
F803E0
F803E0
EC06E0
EC06E0
EC06E0
E60CE0
E60CE0
E71CE0
E318E0
E318E0
E3B8E0
E1B0E0
E1B0E0
E1F0E0
E0E0E0
E0E0E0
ENDCHAR
STARTCHAR N
ENCODING 78
SWIDTH 722 0
DWIDTH 19 0
BBX 15 18 2 0
BITMAP
F00E
F00E
F80E
FC0E
EC0E
EE0E
E60E
E70E
E38E
E18E
E1CE
E0CE
E0EE
E07E
E03E
E03E
E01E
E01E
ENDCHAR
STARTCHAR O
ENCODING 79
SWIDTH 778 0
DWIDTH 20 0
BBX 18 18 1 0
BITMAP
03F000
0FFC00
3E3E00
380F00
700780
700380
E00380
E001C0
E001C0
E001C0
E001C0
E00380
700380
700780
380F00
3E3E00
1FFC00
03F000
ENDCHAR
STARTCHAR P
ENCODING 80
SWIDTH 556 0
DWIDTH 14 0
BBX 12 18 2 0
BITMAP
FF00
FFC0
E3E0
E0F0
E070
E070
E070
E0F0
E1E0
FFC0
FF00
E000
E000
E000
E000
E000
E000
E000
ENDCHAR
STARTCHAR Q
ENCODING 81
SWIDTH 778 0
DWIDTH 20 0
BBX 18 21 1 -3
BITMAP
03F000
0FFC00
3E3E00
380F00
700780
700380
E00380
E001C0
E001C0
E001C0
E001C0
E00380
700380
700780
380F00
3E3E00
1FFC00
03F800
001C00
000E00
000780
ENDCHAR
STARTCHAR R
ENCODING 82
SWIDTH 611 0
DWIDTH 16 0
BBX 13 18 2 0
BITMAP
FF80
FFC0
E1E0
E0F0
E070
E070
E0E0
E1E0
FFC0
FF00
E380
E1C0
E0C0
E0E0
E060
E070
E070
E038
ENDCHAR
STARTCHAR S
ENCODING 83
SWIDTH 500 0
DWIDTH 13 0
BBX 11 18 1 0
BITMAP
1FC0
3FC0
78C0
E000
E000
E000
7800
7E00
3F00
0FC0
03C0
00E0
00E0
00E0
01E0
63C0
FF80
7E00
ENDCHAR
STARTCHAR T
ENCODING 84
SWIDTH 556 0
DWIDTH 14 0
BBX 15 18 0 0
BITMAP
FFFE
FFFE
0380
0380
0380
0380
0380
0380
0380
0380
0380
0380
0380
0380
0380
0380
0380
0380
ENDCHAR
STARTCHAR U
ENCODING 85
SWIDTH 722 0
DWIDTH 19 0
BBX 14 18 2 0
BITMAP
E01C
E01C
E01C
E01C
E01C
E01C
E01C
E01C
E01C
E01C
E01C
E01C
E01C
F03C
7038
7CF8
3FF0
0FC0
ENDCHAR
STARTCHAR V
ENCODING 86
SWIDTH 667 0
DWIDTH 17 0
BBX 17 18 0 0
BITMAP
E00380
700380
700700
700700
380600
380E00
180E00
1C0C00
1C1C00
0C1C00
0E1800
063800
073000
077000
037000
03E000
03E000
01C000
ENDCHAR
STARTCHAR W
ENCODING 87
SWIDTH 1000 0
DWIDTH 26 0
BBX 26 18 0 0
BITMAP
E01E01C0
E01E0180
603E0380
703F0380
70370300
30330700
38730700
38738600
38638600
18618E00
1CE18E00
1CE1CC00
0CC1DC00
0EC0DC00
0FC0D800
0780F800
0780F800
07807000
ENDCHAR
STARTCHAR X
ENCODING 88
SWIDTH 667 0
DWIDTH 17 0
BBX 17 18 0 0
BITMAP
700700
380E00
1C0C00
1C1C00
0E3800
073000
077000
03E000
01C000
03E000
037000
077000
0E3800
0C1C00
1C1C00
380E00
700700
F00780
ENDCHAR
STARTCHAR Y
ENCODING 89
SWIDTH 667 0
DWIDTH 17 0
BBX 17 18 0 0
BITMAP
E00380
700700
380E00
380E00
1C1C00
0E3800
0E3800
077000
03E000
03E000
01C000
01C000
01C000
01C000
01C000
01C000
01C000
01C000
ENDCHAR
STARTCHAR Z
ENCODING 90
SWIDTH 556 0
DWIDTH 14 0
BBX 13 18 1 0
BITMAP
FFF0
FFF0
0070
0070
00E0
01C0
0380
0380
0700
0E00
0E00
1C00
3800
3800
7000
E000
FFF8
FFF8
ENDCHAR
STARTCHAR bracketleft
ENCODING 91
SWIDTH 333 0
DWIDTH 9 0
BBX 5 23 2 -4
BITMAP
F8
F8
C0
C0
C0
C0
C0
C0
C0
C0
C0
C0
C0
C0
C0
C0
C0
C0
C0
C0
C0
F8
F8
ENDCHAR
STARTCHAR backslash
ENCODING 92
SWIDTH 278 0
DWIDTH 7 0
BBX 8 18 0 0
BITMAP
C0
E0
60
60
70
30
30
38
18
18
1C
0C
0C
0E
06
06
07
03
ENDCHAR
STARTCHAR bracketright
ENCODING 93
SWIDTH 333 0
DWIDTH 9 0
BBX 5 23 1 -4
BITMAP
F8
F8
18
18
18
18
18
18
18
18
18
18
18
18
18
18
18
18
18
18
18
F8
F8
ENDCHAR
STARTCHAR asciicircum
ENCODING 94
SWIDTH 600 0
DWIDTH 16 0
BBX 12 11 2 7
BITMAP
0600
0F00
0F00
1D80
1980
39C0
30C0
70E0
6060
6070
C030
ENDCHAR
STARTCHAR underscore
ENCODING 95
SWIDTH 500 0
DWIDTH 13 0
BBX 13 1 0 -3
BITMAP
FFF8
ENDCHAR
STARTCHAR grave
ENCODING 96
SWIDTH 278 0
DWIDTH 7 0
BBX 5 4 0 15
BITMAP
E0
70
30
18
ENDCHAR
STARTCHAR a
ENCODING 97
SWIDTH 556 0
DWIDTH 14 0
BBX 12 13 1 0
BITMAP
1F80
3FE0
20E0
0070
0070
1FF0
7FF0
7070
E070
E070
F0F0
7FF0
3E70
ENDCHAR
STARTCHAR b
ENCODING 98
SWIDTH 611 0
DWIDTH 16 0
BBX 13 19 2 0
BITMAP
E000
E000
E000
E000
E000
E000
E7C0
FFE0
F8F0
F078
E038
E038
E038
E038
E038
F070
F8F0
FFE0
E7C0
ENDCHAR
STARTCHAR c
ENCODING 99
SWIDTH 444 0
DWIDTH 12 0
BBX 10 13 1 0
BITMAP
0FC0
3FC0
7800
7000
E000
E000
E000
E000
E000
7000
7840
3FC0
0FC0
ENDCHAR
STARTCHAR d
ENCODING 100
SWIDTH 611 0
DWIDTH 16 0
BBX 13 19 1 0
BITMAP
0038
0038
0038
0038
0038
0038
1F38
3FF8
70F8
F078
E038
E038
E038
E038
E038
F078
78F8
3FF8
1F38
ENDCHAR
STARTCHAR e
ENCODING 101
SWIDTH 556 0
DWIDTH 14 0
BBX 12 13 1 0
BITMAP
0F80
3FE0
78E0
7070
E070
FFF0
FFF0
E000
E000
7000
7820
3FE0
0FC0
ENDCHAR
STARTCHAR f
ENCODING 102
SWIDTH 389 0
DWIDTH 10 0
BBX 10 19 1 0
BITMAP
07C0
0FC0
1E00
1C00
1C00
1C00
FFC0
FFC0
1C00
1C00
1C00
1C00
1C00
1C00
1C00
1C00
1C00
1C00
1C00
ENDCHAR
STARTCHAR g
ENCODING 103
SWIDTH 611 0
DWIDTH 16 0
BBX 13 18 1 -5
BITMAP
1F38
3FF8
78F8
F078
E038
E038
E038
E038
E038
F078
78F8
3FF8
1F38
0038
0078
40F0
7FE0
3F80
ENDCHAR
STARTCHAR h
ENCODING 104
SWIDTH 611 0
DWIDTH 16 0
BBX 12 19 2 0
BITMAP
E000
E000
E000
E000
E000
E000
E7C0
EFE0
F8E0
F070
E070
E070
E070
E070
E070
E070
E070
E070
E070
ENDCHAR
STARTCHAR i
ENCODING 105
SWIDTH 278 0
DWIDTH 7 0
BBX 3 19 2 0
BITMAP
E0
E0
E0
00
00
00
E0
E0
E0
E0
E0
E0
E0
E0
E0
E0
E0
E0
E0
ENDCHAR
STARTCHAR j
ENCODING 106
SWIDTH 278 0
DWIDTH 7 0
BBX 6 24 -1 -5
BITMAP
1C
1C
1C
00
00
00
1C
1C
1C
1C
1C
1C
1C
1C
1C
1C
1C
1C
1C
1C
1C
1C
F8
F0
ENDCHAR
STARTCHAR k
ENCODING 107
SWIDTH 556 0
DWIDTH 14 0
BBX 12 19 2 0
BITMAP
E000
E000
E000
E000
E000
E000
E1E0
E3C0
E780
E700
EE00
FC00
FC00
EE00
E700
E380
E3C0
E1E0
E0F0
ENDCHAR
STARTCHAR l
ENCODING 108
SWIDTH 278 0
DWIDTH 7 0
BBX 3 19 2 0
BITMAP
E0
E0
E0
E0
E0
E0
E0
E0
E0
E0
E0
E0
E0
E0
E0
E0
E0
E0
E0
ENDCHAR
STARTCHAR m
ENCODING 109
SWIDTH 889 0
DWIDTH 23 0
BBX 19 13 2 0
BITMAP
E78F80
FFDFC0
F1F1E0
F0F0E0
E0E0E0
E0E0E0
E0E0E0
E0E0E0
E0E0E0
E0E0E0
E0E0E0
E0E0E0
E0E0E0
ENDCHAR
STARTCHAR n
ENCODING 110
SWIDTH 611 0
DWIDTH 16 0
BBX 12 13 2 0
BITMAP
E7C0
EFE0
F8E0
F070
E070
E070
E070
E070
E070
E070
E070
E070
E070
ENDCHAR
STARTCHAR o
ENCODING 111
SWIDTH 611 0
DWIDTH 16 0
BBX 14 13 1 0
BITMAP
0FC0
3FF0
7878
7038
E03C
E01C
E01C
E01C
E01C
7038
7870
3FE0
0FC0
ENDCHAR
STARTCHAR p
ENCODING 112
SWIDTH 611 0
DWIDTH 16 0
BBX 13 18 2 -5
BITMAP
E7C0
FFE0
F8F0
F078
E038
E038
E038
E038
E038
F070
F8F0
FFE0
E7C0
E000
E000
E000
E000
E000
ENDCHAR
STARTCHAR q
ENCODING 113
SWIDTH 611 0
DWIDTH 16 0
BBX 13 18 1 -5
BITMAP
1F38
3FF8
70F8
F078
E038
E038
E038
E038
E038
F078
78F8
3FF8
1F38
0038
0038
0038
0038
0038
ENDCHAR
STARTCHAR r
ENCODING 114
SWIDTH 389 0
DWIDTH 10 0
BBX 7 13 2 0
BITMAP
EE
FE
F8
F0
E0
E0
E0
E0
E0
E0
E0
E0
E0
ENDCHAR
STARTCHAR s
ENCODING 115
SWIDTH 389 0
DWIDTH 10 0
BBX 9 13 1 0
BITMAP
3E00
7E00
E000
E000
E000
F800
3E00
0F00
0700
0780
8700
FF00
FC00
ENDCHAR
STARTCHAR t
ENCODING 116
SWIDTH 389 0
DWIDTH 10 0
BBX 10 17 0 0
BITMAP
0C00
1C00
1C00
1C00
FFC0
FFC0
1C00
1C00
1C00
1C00
1C00
1C00
1C00
1C00
1E00
0F80
0780
ENDCHAR
STARTCHAR u
ENCODING 117
SWIDTH 611 0
DWIDTH 16 0
BBX 12 13 2 0
BITMAP
E070
E070
E070
E070
E070
E070
E070
E070
E070
E0F0
71F0
7F70
3E70
ENDCHAR
STARTCHAR v
ENCODING 118
SWIDTH 500 0
DWIDTH 13 0
BBX 13 13 0 0
BITMAP
E038
7070
7070
3060
38E0
38E0
18C0
1DC0
1DC0
0D80
0D80
0F00
0700
ENDCHAR
STARTCHAR w
ENCODING 119
SWIDTH 833 0
DWIDTH 22 0
BBX 21 13 0 0
BITMAP
E07038
E07030
60F870
70D870
70D860
319C60
318CE0
398CC0
1B0EC0
1B06C0
1F0780
0E0780
0E0380
ENDCHAR
STARTCHAR x
ENCODING 120
SWIDTH 500 0
DWIDTH 13 0
BBX 13 13 0 0
BITMAP
7070
3860
38E0
1DC0
0F80
0780
0700
0F80
1DC0
19C0
38E0
7070
E078
ENDCHAR
STARTCHAR y
ENCODING 121
SWIDTH 500 0
DWIDTH 13 0
BBX 13 18 0 -5
BITMAP
E038
7070
7070
7060
38E0
38E0
18C0
1DC0
1DC0
0D80
0F80
0F00
0700
0700
0E00
0E00
7C00
7800
ENDCHAR
STARTCHAR z
ENCODING 122
SWIDTH 500 0
DWIDTH 13 0
BBX 11 13 1 0
BITMAP
7FE0
7FE0
01C0
0380
0780
0700
0E00
1C00
3800
7000
E000
FFE0
FFE0
ENDCHAR
STARTCHAR braceleft
ENCODING 123
SWIDTH 333 0
DWIDTH 9 0
BBX 7 23 1 -4
BITMAP
1E
3E
30
30
30
30
30
30
30
30
70
E0
E0
70
30
30
30
30
30
30
30
3E
1E
ENDCHAR
STARTCHAR bar
ENCODING 124
SWIDTH 222 0
DWIDTH 6 0
BBX 2 26 2 -7
BITMAP
C0
C0
C0
C0
C0
C0
C0
C0
C0
C0
C0
C0
C0
C0
C0
C0
C0
C0
C0
C0
C0
C0
C0
C0
C0
C0
ENDCHAR
STARTCHAR braceright
ENCODING 125
SWIDTH 333 0
DWIDTH 9 0
BBX 7 23 0 -4
BITMAP
F0
F0
18
18
18
18
18
18
18
18
1C
0E
0E
1C
18
18
18
18
18
18
18
F8
F0
ENDCHAR
STARTCHAR asciitilde
ENCODING 126
SWIDTH 600 0
DWIDTH 16 0
BBX 12 4 2 5
BITMAP
7820
FF30
C7E0
81C0
ENDCHAR
STARTCHAR Zcaron
ENCODING 142
SWIDTH 556 0
DWIDTH 14 0
BBX 13 23 1 0
BITMAP
30C0
1980
0F00
0600
0000
FFF0
FFF0
0070
0070
00E0
01C0
0380
0380
0700
0E00
0E00
1C00
3800
3800
7000
E000
FFF8
FFF8
ENDCHAR
STARTCHAR zcaron
ENCODING 158
SWIDTH 500 0
DWIDTH 13 0
BBX 11 19 1 0
BITMAP
6180
3300
1E00
0C00
0000
0000
7FE0
7FE0
01C0
0380
0780
0700
0E00
1C00
3800
7000
E000
FFE0
FFE0
ENDCHAR
STARTCHAR nonbreakingspace
ENCODING 160
SWIDTH 278 0
DWIDTH 7 0
BBX 1 1 0 0
BITMAP
00
ENDCHAR
STARTCHAR exclamdown
ENCODING 161
SWIDTH 389 0
DWIDTH 10 0
BBX 3 18 4 -5
BITMAP
E0
E0
E0
00
00
E0
E0
E0
E0
E0
E0
E0
E0
E0
E0
E0
E0
E0
ENDCHAR
STARTCHAR cent
ENCODING 162
SWIDTH 556 0
DWIDTH 14 0
BBX 10 19 2 -3
BITMAP
0080
0080
0180
0FC0
3FC0
7B40
7300
E200
E600
E600
E400
EC00
7C00
7840
3FC0
1FC0
1000
1000
3000
ENDCHAR
STARTCHAR sterling
ENCODING 163
SWIDTH 556 0
DWIDTH 14 0
BBX 12 18 2 0
BITMAP
03F0
0FF0
1F30
1C00
3800
3800
3800
3800
FF80
FF80
3800
3800
3800
3800
3800
3800
FFE0
FFE0
ENDCHAR
STARTCHAR currency
ENCODING 164
SWIDTH 556 0
DWIDTH 14 0
BBX 13 13 1 3
BITMAP
4F90
FFF8
78F0
6030
E038
C018
C018
C018
E038
6030
78F0
FFF8
4F98
ENDCHAR
STARTCHAR yen
ENCODING 165
SWIDTH 556 0
DWIDTH 14 0
BBX 15 18 0 0
BITMAP
E00E
701C
3018
3838
1C70
1C70
0EE0
0EE0
07C0
3FF8
3FF8
0380
3FF8
3FF8
0380
0380
0380
0380
ENDCHAR
STARTCHAR brokenbar
ENCODING 166
SWIDTH 222 0
DWIDTH 6 0
BBX 2 23 2 -5
BITMAP
C0
C0
C0
C0
C0
C0
C0
C0
C0
00
00
00
00
00
C0
C0
C0
C0
C0
C0
C0
C0
C0
ENDCHAR
STARTCHAR section
ENCODING 167
SWIDTH 556 0
DWIDTH 14 0
BBX 11 21 2 -3
BITMAP
1F80
7F80
F080
E000
E000
F000
7C00
7F00
C7C0
C1C0
C0C0
F0C0
7CC0
3F80
07C0
01C0
00E0
01E0
C3C0
FF80
7E00
ENDCHAR
STARTCHAR dieresis
ENCODING 168
SWIDTH 278 0
DWIDTH 7 0
BBX 7 3 0 15
BITMAP
EE
EE
EE
ENDCHAR
STARTCHAR copyright
ENCODING 169
SWIDTH 800 0
DWIDTH 21 0
BBX 18 18 1 0
BITMAP
03F000
0FFC00
1C0E00
300300
71F380
67F980
C60CC0
CE0CC0
CC00C0
CC00C0
CE0CC0
C60CC0
67F980
61F380
300300
1C0E00
0FFC00
03F000
ENDCHAR
STARTCHAR ordfeminine
ENCODING 170
SWIDTH 361 0
DWIDTH 9 0
BBX 8 8 1 10
BITMAP
3E
7F
03
3F
F3
C3
FF
7B
ENDCHAR
STARTCHAR guillemotleft
ENCODING 171
SWIDTH 556 0
DWIDTH 14 0
BBX 11 11 1 2
BITMAP
0C60
18C0
39C0
7380
7380
E700
7380
7380
39C0
18C0
0C60
ENDCHAR
STARTCHAR logicalnot
ENCODING 172
SWIDTH 600 0
DWIDTH 16 0
BBX 13 8 1 2
BITMAP
FFF8
FFF8
0018
0018
0018
0018
0018
0018
ENDCHAR
STARTCHAR hyphen.dup1
ENCODING 173
SWIDTH 333 0
DWIDTH 9 0
BBX 7 2 1 6
BITMAP
FE
FE
ENDCHAR
STARTCHAR registered
ENCODING 174
SWIDTH 800 0
DWIDTH 21 0
BBX 18 18 1 0
BITMAP
03F000
0FFC00
1C0E00
300300
73F380
63F980
C30CC0
C31CC0
C3F8C0
C3E0C0
C360C0
C330C0
631980
631B80
300700
1C0E00
0FFC00
03F000
ENDCHAR
STARTCHAR macron
ENCODING 175
SWIDTH 278 0
DWIDTH 7 0
BBX 8 2 0 16
BITMAP
FF
FF
ENDCHAR
STARTCHAR degree
ENCODING 176
SWIDTH 400 0
DWIDTH 10 0
BBX 7 7 1 11
BITMAP
38
7C
C6
C6
C6
7C
38
ENDCHAR
STARTCHAR plusminus
ENCODING 177
SWIDTH 600 0
DWIDTH 16 0
BBX 12 13 2 0
BITMAP
0600
0600
0600
0600
FFF0
FFF0
0600
0600
0600
0600
0000
FFF0
FFF0
ENDCHAR
STARTCHAR twosuperior
ENCODING 178
SWIDTH 361 0
DWIDTH 9 0
BBX 7 11 1 7
BITMAP
78
FE
86
06
0E
0C
18
30
E0
FE
FE
ENDCHAR
STARTCHAR threesuperior
ENCODING 179
SWIDTH 361 0
DWIDTH 9 0
BBX 7 11 1 7
BITMAP
F8
FE
06
0E
7C
7C
0E
06
06
FE
F8
ENDCHAR
STARTCHAR acute
ENCODING 180
SWIDTH 278 0
DWIDTH 7 0
BBX 5 4 2 15
BITMAP
38
70
60
C0
ENDCHAR
STARTCHAR mu
ENCODING 181
SWIDTH 611 0
DWIDTH 16 0
BBX 12 18 2 -5
BITMAP
E070
E070
E070
E070
E070
E070
E070
E070
E070
E0F0
F1F0
FFF0
FE70
E000
E000
E000
E000
E000
ENDCHAR
STARTCHAR paragraph
ENCODING 182
SWIDTH 600 0
DWIDTH 16 0
BBX 13 21 0 -3
BITMAP
1FF8
3FF8
7F18
FF18
FF18
FF18
7F18
7F18
3F18
0318
0318
0318
0318
0318
0318
0318
0318
0318
0318
0318
0318
ENDCHAR
STARTCHAR periodcentered
ENCODING 183
SWIDTH 278 0
DWIDTH 7 0
BBX 3 3 2 6
BITMAP
E0
E0
E0
ENDCHAR
STARTCHAR cedilla
ENCODING 184
SWIDTH 278 0
DWIDTH 7 0
BBX 6 5 2 -5
BITMAP
10
38
4C
0C
F8
ENDCHAR
STARTCHAR onesuperior
ENCODING 185
SWIDTH 361 0
DWIDTH 9 0
BBX 5 11 1 7
BITMAP
18
78
D8
18
18
18
18
18
18
18
18
ENDCHAR
STARTCHAR ordmasculine
ENCODING 186
SWIDTH 397 0
DWIDTH 10 0
BBX 9 8 1 10
BITMAP
3E00
7F00
E380
C180
C180
C180
7F00
3E00
ENDCHAR
STARTCHAR guillemotright
ENCODING 187
SWIDTH 556 0
DWIDTH 14 0
BBX 11 11 2 2
BITMAP
C600
6300
7380
39C0
39C0
1CE0
39C0
39C0
7380
6300
C600
ENDCHAR
STARTCHAR onequarter
ENCODING 188
SWIDTH 834 0
DWIDTH 22 0
BBX 19 20 1 -1
BITMAP
000300
180600
780600
D80C00
180C00
181800
181000
183000
1861C0
1863C0
18C3C0
18C6C0
018CC0
018CC0
0318C0
023FE0
063FE0
0C00C0
0C00C0
180000
ENDCHAR
STARTCHAR onehalf
ENCODING 189
SWIDTH 834 0
DWIDTH 22 0
BBX 19 20 1 -1
BITMAP
000600
180C00
780C00
D81800
181800
183000
182000
186000
18C780
18CFE0
199060
198060
0300E0
0300C0
060180
040300
0C0E00
180FE0
180FE0
300000
ENDCHAR
STARTCHAR threequarters
ENCODING 190
SWIDTH 834 0
DWIDTH 22 0
BBX 19 20 1 -1
BITMAP
000180
F80300
FE0300
060600
0E0600
7C0C00
7C0800
0E1800
0631C0
0633C0
FE63C0
F866C0
00CCC0
00CCC0
0198C0
013FE0
033FE0
0600C0
0600C0
0C0000
ENDCHAR
STARTCHAR questiondown
ENCODING 191
SWIDTH 500 0
DWIDTH 13 0
BBX 10 18 1 -5
BITMAP
0E00
0E00
0E00
0000
0000
0E00
0E00
0C00
1C00
3800
7000
7000
E000
E000
F000
78C0
7FC0
1F80
ENDCHAR
STARTCHAR Agrave
ENCODING 192
SWIDTH 722 0
DWIDTH 19 0
BBX 18 23 0 0
BITMAP
038000
01C000
00C000
006000
000000
00E000
01E000
01F000
03B000
033800
031800
071C00
061C00
0E0C00
0C0E00
1C0600
1FFF00
1FFF00
380380
380380
700180
7001C0
E001C0
ENDCHAR
STARTCHAR Aacute
ENCODING 193
SWIDTH 722 0
DWIDTH 19 0
BBX 18 23 0 0
BITMAP
003800
007000
006000
00C000
000000
00E000
01E000
01F000
03B000
033800
031800
071C00
061C00
0E0C00
0C0E00
1C0600
1FFF00
1FFF00
380380
380380
700180
7001C0
E001C0
ENDCHAR
STARTCHAR Acircumflex
ENCODING 194
SWIDTH 722 0
DWIDTH 19 0
BBX 18 23 0 0
BITMAP
00C000
01E000
033000
061800
000000
00E000
01E000
01F000
03B000
033800
031800
071C00
061C00
0E0C00
0C0E00
1C0600
1FFF00
1FFF00
380380
380380
700180
7001C0
E001C0
ENDCHAR
STARTCHAR Atilde
ENCODING 195
SWIDTH 722 0
DWIDTH 19 0
BBX 18 22 0 0
BITMAP
03C400
07FC00
047800
000000
00E000
01E000
01F000
03B000
033800
031800
071C00
061C00
0E0C00
0C0E00
1C0600
1FFF00
1FFF00
380380
380380
700180
7001C0
E001C0
ENDCHAR
STARTCHAR Adieresis
ENCODING 196
SWIDTH 722 0
DWIDTH 19 0
BBX 18 22 0 0
BITMAP
03B800
03B800
03B800
000000
00E000
01E000
01F000
03B000
033800
031800
071C00
061C00
0E0C00
0C0E00
1C0600
1FFF00
1FFF00
380380
380380
700180
7001C0
E001C0
ENDCHAR
STARTCHAR Aring
ENCODING 197
SWIDTH 722 0
DWIDTH 19 0
BBX 18 24 0 0
BITMAP
00E000
011000
011000
013000
00E000
000000
00E000
01E000
01F000
03B000
033800
031800
071C00
061C00
0E0C00
0C0E00
1C0600
1FFF00
1FFF00
380380
380380
700180
7001C0
E001C0
ENDCHAR
STARTCHAR AE
ENCODING 198
SWIDTH 944 0
DWIDTH 25 0
BBX 23 18 0 0
BITMAP
001FFE
003FFE
003700
006700
00E700
00C700
01C700
018700
0307FC
0707FC
060700
0FFF00
1FFF00
180700
380300
300300
7003FE
E003FE
ENDCHAR
STARTCHAR Ccedilla
ENCODING 199
SWIDTH 611 0
DWIDTH 16 0
BBX 14 23 1 -5
BITMAP
03F8
0FFC
1F0C
3C00
7800
7000
E000
E000
E000
E000
E000
E000
7000
7800
3C00
1F0C
0FFC
03FC
0180
03C0
0060
0060
03C0
ENDCHAR
STARTCHAR Egrave
ENCODING 200
SWIDTH 556 0
DWIDTH 14 0
BBX 10 23 2 0
BITMAP
3800
1C00
0C00
0600
0000
FFC0
FFC0
E000
E000
E000
E000
E000
E000
FFC0
FFC0
E000
E000
E000
E000
E000
E000
FFC0
FFC0
ENDCHAR
STARTCHAR Eacute
ENCODING 201
SWIDTH 556 0
DWIDTH 14 0
BBX 10 23 2 0
BITMAP
0380
0700
0600
0C00
0000
FFC0
FFC0
E000
E000
E000
E000
E000
E000
FFC0
FFC0
E000
E000
E000
E000
E000
E000
FFC0
FFC0
ENDCHAR
STARTCHAR Ecircumflex
ENCODING 202
SWIDTH 556 0
DWIDTH 14 0
BBX 10 23 2 0
BITMAP
0C00
1E00
3300
6180
0000
FFC0
FFC0
E000
E000
E000
E000
E000
E000
FFC0
FFC0
E000
E000
E000
E000
E000
E000
FFC0
FFC0
ENDCHAR
STARTCHAR Edieresis
ENCODING 203
SWIDTH 556 0
DWIDTH 14 0
BBX 10 22 2 0
BITMAP
3B80
3B80
3B80
0000
FFC0
FFC0
E000
E000
E000
E000
E000
E000
FFC0
FFC0
E000
E000
E000
E000
E000
E000
FFC0
FFC0
ENDCHAR
STARTCHAR Igrave
ENCODING 204
SWIDTH 278 0
DWIDTH 7 0
BBX 5 23 0 0
BITMAP
E0
70
30
18
00
38
38
38
38
38
38
38
38
38
38
38
38
38
38
38
38
38
38
ENDCHAR
STARTCHAR Iacute
ENCODING 205
SWIDTH 278 0
DWIDTH 7 0
BBX 5 23 2 0
BITMAP
38
70
60
C0
00
E0
E0
E0
E0
E0
E0
E0
E0
E0
E0
E0
E0
E0
E0
E0
E0
E0
E0
ENDCHAR
STARTCHAR Icircumflex
ENCODING 206
SWIDTH 278 0
DWIDTH 7 0
BBX 8 23 -1 0
BITMAP
18
3C
66
C3
00
1C
1C
1C
1C
1C
1C
1C
1C
1C
1C
1C
1C
1C
1C
1C
1C
1C
1C
ENDCHAR
STARTCHAR Idieresis
ENCODING 207
SWIDTH 278 0
DWIDTH 7 0
BBX 7 22 0 0
BITMAP
EE
EE
EE
00
38
38
38
38
38
38
38
38
38
38
38
38
38
38
38
38
38
38
ENDCHAR
STARTCHAR Eth
ENCODING 208
SWIDTH 722 0
DWIDTH 19 0
BBX 17 18 0 0
BITMAP
3FE000
3FF800
383E00
380E00
380700
380780
380380
380380
FFC380
FFC380
380380
380380
380380
380700
380F00
387E00
3FFC00
3FE000
ENDCHAR
STARTCHAR Ntilde
ENCODING 209
SWIDTH 722 0
DWIDTH 19 0
BBX 15 22 2 0
BITMAP
0F10
1FF0
11E0
0000
F00E
F00E
F80E
FC0E
EC0E
EE0E
E60E
E70E
E38E
E18E
E1CE
E0CE
E0EE
E07E
E03E
E03E
E01E
E01E
ENDCHAR
STARTCHAR Ograve
ENCODING 210
SWIDTH 778 0
DWIDTH 20 0
BBX 18 23 1 0
BITMAP
038000
01C000
00C000
006000
000000
03F000
0FFC00
3E3E00
380F00
700780
700380
E00380
E001C0
E001C0
E001C0
E001C0
E00380
700380
700780
380F00
3E3E00
1FFC00
03F000
ENDCHAR
STARTCHAR Oacute
ENCODING 211
SWIDTH 778 0
DWIDTH 20 0
BBX 18 23 1 0
BITMAP
003800
007000
006000
00C000
000000
03F000
0FFC00
3E3E00
380F00
700780
700380
E00380
E001C0
E001C0
E001C0
E001C0
E00380
700380
700780
380F00
3E3E00
1FFC00
03F000
ENDCHAR
STARTCHAR Ocircumflex
ENCODING 212
SWIDTH 778 0
DWIDTH 20 0
BBX 18 23 1 0
BITMAP
00C000
01E000
033000
061800
000000
03F000
0FFC00
3E3E00
380F00
700780
700380
E00380
E001C0
E001C0
E001C0
E001C0
E00380
700380
700780
380F00
3E3E00
1FFC00
03F000
ENDCHAR
STARTCHAR Otilde
ENCODING 213
SWIDTH 778 0
DWIDTH 20 0
BBX 18 23 1 0
BITMAP
03C400
07FC00
047800
000000
000000
03F000
0FFC00
3E3E00
380F00
700780
700380
E00380
E001C0
E001C0
E001C0
E001C0
E00380
700380
700780
380F00
3E3E00
1FFC00
03F000
ENDCHAR
STARTCHAR Odieresis
ENCODING 214
SWIDTH 778 0
DWIDTH 20 0
BBX 18 22 1 0
BITMAP
03B800
03B800
03B800
000000
03F000
0FFC00
3E3E00
380F00
700780
700380
E00380
E001C0
E001C0
E001C0
E001C0
E00380
700380
700780
380F00
3E3E00
1FFC00
03F000
ENDCHAR
STARTCHAR multiply
ENCODING 215
SWIDTH 600 0
DWIDTH 16 0
BBX 11 12 2 1
BITMAP
4040
E0E0
71C0
3B80
1F00
0E00
0E00
1F00
3B80
71C0
E0E0
4040
ENDCHAR
STARTCHAR Oslash
ENCODING 216
SWIDTH 778 0
DWIDTH 20 0
BBX 18 18 1 0
BITMAP
03F180
0FFF00
3E1E00
380700
700B80
701B80
E03380
E061C0
E0C1C0
E081C0
E101C0
E30380
760380
7C0780
380F00
3E3E00
2FFC00
67F000
ENDCHAR
STARTCHAR Ugrave
ENCODING 217
SWIDTH 722 0
DWIDTH 19 0
BBX 14 23 2 0
BITMAP
0E00
0700
0300
0180
0000
E01C
E01C
E01C
E01C
E01C
E01C
E01C
E01C
E01C
E01C
E01C
E01C
E01C
F03C
7038
7CF8
3FF0
0FC0
ENDCHAR
STARTCHAR Uacute
ENCODING 218
SWIDTH 722 0
DWIDTH 19 0
BBX 14 23 2 0
BITMAP
00E0
01C0
0180
0300
0000
E01C
E01C
E01C
E01C
E01C
E01C
E01C
E01C
E01C
E01C
E01C
E01C
E01C
F03C
7038
7CF8
3FF0
0FC0
ENDCHAR
STARTCHAR Ucircumflex
ENCODING 219
SWIDTH 722 0
DWIDTH 19 0
BBX 14 23 2 0
BITMAP
0300
0780
0CC0
1860
0000
E01C
E01C
E01C
E01C
E01C
E01C
E01C
E01C
E01C
E01C
E01C
E01C
E01C
F03C
7038
7CF8
3FF0
0FC0
ENDCHAR
STARTCHAR Udieresis
ENCODING 220
SWIDTH 722 0
DWIDTH 19 0
BBX 14 22 2 0
BITMAP
0EE0
0EE0
0EE0
0000
E01C
E01C
E01C
E01C
E01C
E01C
E01C
E01C
E01C
E01C
E01C
E01C
E01C
F03C
7038
7CF8
3FF0
0FC0
ENDCHAR
STARTCHAR Yacute
ENCODING 221
SWIDTH 667 0
DWIDTH 17 0
BBX 17 23 0 0
BITMAP
007000
00E000
00C000
018000
000000
E00380
700700
380E00
380E00
1C1C00
0E3800
0E3800
077000
03E000
03E000
01C000
01C000
01C000
01C000
01C000
01C000
01C000
01C000
ENDCHAR
STARTCHAR Thorn
ENCODING 222
SWIDTH 556 0
DWIDTH 14 0
BBX 12 18 2 0
BITMAP
E000
E000
E000
FF80
FFC0
E3E0
E0F0
E070
E070
E0F0
E1E0
FFC0
FF80
E000
E000
E000
E000
E000
ENDCHAR
STARTCHAR germandbls
ENCODING 223
SWIDTH 611 0
DWIDTH 16 0
BBX 13 19 2 0
BITMAP
1F80
3FE0
78E0
7070
E070
E070
E070
E0E0
E7C0
E7E0
E0F0
E070
E038
E038
E038
E078
E0F0
EFE0
EFC0
ENDCHAR
STARTCHAR agrave
ENCODING 224
SWIDTH 556 0
DWIDTH 14 0
BBX 12 19 1 0
BITMAP
1C00
0E00
0600
0300
0000
0000
1F80
3FE0
20E0
0070
0070
1FF0
7FF0
7070
E070
E070
F0F0
7FF0
3E70
ENDCHAR
STARTCHAR aacute
ENCODING 225
SWIDTH 556 0
DWIDTH 14 0
BBX 12 19 1 0
BITMAP
01C0
0380
0300
0600
0000
0000
1F80
3FE0
20E0
0070
0070
1FF0
7FF0
7070
E070
E070
F0F0
7FF0
3E70
ENDCHAR
STARTCHAR acircumflex
ENCODING 226
SWIDTH 556 0
DWIDTH 14 0
BBX 12 19 1 0
BITMAP
0600
0F00
1980
30C0
0000
0000
1F80
3FE0
20E0
0070
0070
1FF0
7FF0
7070
E070
E070
F0F0
7FF0
3E70
ENDCHAR
STARTCHAR atilde
ENCODING 227
SWIDTH 556 0
DWIDTH 14 0
BBX 12 18 1 0
BITMAP
1E20
3FE0
23C0
0000
0000
1F80
3FE0
20E0
0070
0070
1FF0
7FF0
7070
E070
E070
F0F0
7FF0
3E70
ENDCHAR
STARTCHAR adieresis
ENCODING 228
SWIDTH 556 0
DWIDTH 14 0
BBX 12 18 1 0
BITMAP
1DC0
1DC0
1DC0
0000
0000
1F80
3FE0
20E0
0070
0070
1FF0
7FF0
7070
E070
E070
F0F0
7FF0
3E70
ENDCHAR
STARTCHAR aring
ENCODING 229
SWIDTH 556 0
DWIDTH 14 0
BBX 12 20 1 0
BITMAP
0700
0880
0880
0980
0700
0000
0000
1F80
3FE0
20E0
0070
0070
1FF0
7FF0
7070
E070
E070
F0F0
7FF0
3E70
ENDCHAR
STARTCHAR ae
ENCODING 230
SWIDTH 889 0
DWIDTH 23 0
BBX 21 13 1 0
BITMAP
1F87C0
7FDFE0
20F870
007038
007038
1FFFF8
7FFFF8
F07000
E07000
E0F800
F1FC10
7F9FF0
1F07E0
ENDCHAR
STARTCHAR ccedilla
ENCODING 231
SWIDTH 444 0
DWIDTH 12 0
BBX 10 18 1 -5
BITMAP
0FC0
3FC0
7800
7000
E000
E000
E000
E000
E000
7000
7840
3FC0
0FC0
0400
0F00
0180
0380
1F00
ENDCHAR
STARTCHAR egrave
ENCODING 232
SWIDTH 556 0
DWIDTH 14 0
BBX 12 19 1 0
BITMAP
1C00
0E00
0600
0300
0000
0000
0F80
3FE0
78E0
7070
E070
FFF0
FFF0
E000
E000
7000
7820
3FE0
0FC0
ENDCHAR
STARTCHAR eacute
ENCODING 233
SWIDTH 556 0
DWIDTH 14 0
BBX 12 19 1 0
BITMAP
01C0
0380
0300
0600
0000
0000
0F80
3FE0
78E0
7070
E070
FFF0
FFF0
E000
E000
7000
7820
3FE0
0FC0
ENDCHAR
STARTCHAR ecircumflex
ENCODING 234
SWIDTH 556 0
DWIDTH 14 0
BBX 12 19 1 0
BITMAP
0600
0F00
1980
30C0
0000
0000
0F80
3FE0
78E0
7070
E070
FFF0
FFF0
E000
E000
7000
7820
3FE0
0FC0
ENDCHAR
STARTCHAR edieresis
ENCODING 235
SWIDTH 556 0
DWIDTH 14 0
BBX 12 18 1 0
BITMAP
1DC0
1DC0
1DC0
0000
0000
0F80
3FE0
78E0
7070
E070
FFF0
FFF0
E000
E000
7000
7820
3FE0
0FC0
ENDCHAR
STARTCHAR igrave
ENCODING 236
SWIDTH 278 0
DWIDTH 7 0
BBX 5 19 0 0
BITMAP
E0
70
30
18
00
00
38
38
38
38
38
38
38
38
38
38
38
38
38
ENDCHAR
STARTCHAR iacute
ENCODING 237
SWIDTH 278 0
DWIDTH 7 0
BBX 5 19 2 0
BITMAP
38
70
60
C0
00
00
E0
E0
E0
E0
E0
E0
E0
E0
E0
E0
E0
E0
E0
ENDCHAR
STARTCHAR icircumflex
ENCODING 238
SWIDTH 278 0
DWIDTH 7 0
BBX 8 19 -1 0
BITMAP
18
3C
66
C3
00
00
1C
1C
1C
1C
1C
1C
1C
1C
1C
1C
1C
1C
1C
ENDCHAR
STARTCHAR idieresis
ENCODING 239
SWIDTH 278 0
DWIDTH 7 0
BBX 7 18 0 0
BITMAP
EE
EE
EE
00
00
38
38
38
38
38
38
38
38
38
38
38
38
38
ENDCHAR
STARTCHAR eth
ENCODING 240
SWIDTH 611 0
DWIDTH 16 0
BBX 13 19 1 0
BITMAP
3040
7DE0
0F80
1F80
39C0
20E0
0FF0
3FF0
7878
7038
E038
E018
E018
E018
E018
7038
7870
3FE0
0F80
ENDCHAR
STARTCHAR ntilde
ENCODING 241
SWIDTH 611 0
DWIDTH 16 0
BBX 12 18 2 0
BITMAP
3C40
7FC0
4780
0000
0000
E7C0
EFE0
F8E0
F070
E070
E070
E070
E070
E070
E070
E070
E070
E070
ENDCHAR
STARTCHAR ograve
ENCODING 242
SWIDTH 611 0
DWIDTH 16 0
BBX 14 19 1 0
BITMAP
1C00
0E00
0600
0300
0000
0000
0FC0
3FF0
7878
7038
E03C
E01C
E01C
E01C
E01C
7038
7870
3FE0
0FC0
ENDCHAR
STARTCHAR oacute
ENCODING 243
SWIDTH 611 0
DWIDTH 16 0
BBX 14 19 1 0
BITMAP
01C0
0380
0300
0600
0000
0000
0FC0
3FF0
7878
7038
E03C
E01C
E01C
E01C
E01C
7038
7870
3FE0
0FC0
ENDCHAR
STARTCHAR ocircumflex
ENCODING 244
SWIDTH 611 0
DWIDTH 16 0
BBX 14 19 1 0
BITMAP
0600
0F00
1980
30C0
0000
0000
0FC0
3FF0
7878
7038
E03C
E01C
E01C
E01C
E01C
7038
7870
3FE0
0FC0
ENDCHAR
STARTCHAR otilde
ENCODING 245
SWIDTH 611 0
DWIDTH 16 0
BBX 14 18 1 0
BITMAP
1E20
3FE0
23C0
0000
0000
0FC0
3FF0
7878
7038
E03C
E01C
E01C
E01C
E01C
7038
7870
3FE0
0FC0
ENDCHAR
STARTCHAR odieresis
ENCODING 246
SWIDTH 611 0
DWIDTH 16 0
BBX 14 18 1 0
BITMAP
1DC0
1DC0
1DC0
0000
0000
0FC0
3FF0
7878
7038
E03C
E01C
E01C
E01C
E01C
7038
7870
3FE0
0FC0
ENDCHAR
STARTCHAR divide
ENCODING 247
SWIDTH 600 0
DWIDTH 16 0
BBX 14 14 1 0
BITMAP
0300
0780
0780
0300
0000
0000
FFFC
FFFC
0000
0000
0300
0780
0780
0300
ENDCHAR
STARTCHAR oslash
ENCODING 248
SWIDTH 611 0
DWIDTH 16 0
BBX 14 15 1 -1
BITMAP
0010
0FC8
3FF0
7878
7078
F09C
E11C
E21C
E41C
E43C
6838
7870
3FE0
4FC0
8000
ENDCHAR
STARTCHAR ugrave
ENCODING 249
SWIDTH 611 0
DWIDTH 16 0
BBX 12 19 2 0
BITMAP
3800
1C00
0C00
0600
0000
0000
E070
E070
E070
E070
E070
E070
E070
E070
E070
E0F0
71F0
7F70
3E70
ENDCHAR
STARTCHAR uacute
ENCODING 250
SWIDTH 611 0
DWIDTH 16 0
BBX 12 19 2 0
BITMAP
0380
0700
0600
0C00
0000
0000
E070
E070
E070
E070
E070
E070
E070
E070
E070
E0F0
71F0
7F70
3E70
ENDCHAR
STARTCHAR ucircumflex
ENCODING 251
SWIDTH 611 0
DWIDTH 16 0
BBX 12 19 2 0
BITMAP
0C00
1E00
3300
6180
0000
0000
E070
E070
E070
E070
E070
E070
E070
E070
E070
E0F0
71F0
7F70
3E70
ENDCHAR
STARTCHAR udieresis
ENCODING 252
SWIDTH 611 0
DWIDTH 16 0
BBX 12 18 2 0
BITMAP
3B80
3B80
3B80
0000
0000
E070
E070
E070
E070
E070
E070
E070
E070
E070
E0F0
71F0
7F70
3E70
ENDCHAR
STARTCHAR yacute
ENCODING 253
SWIDTH 500 0
DWIDTH 13 0
BBX 13 24 0 -5
BITMAP
01C0
0380
0300
0600
0000
0000
E038
7070
7070
7060
38E0
38E0
18C0
1DC0
1DC0
0D80
0F80
0F00
0700
0700
0E00
0E00
7C00
7800
ENDCHAR
STARTCHAR thorn
ENCODING 254
SWIDTH 611 0
DWIDTH 16 0
BBX 13 24 2 -5
BITMAP
E000
E000
E000
E000
E000
E000
E7C0
FFE0
F8F0
F078
E038
E038
E038
E038
E038
F070
F8F0
FFE0
E7C0
E000
E000
E000
E000
E000
ENDCHAR
STARTCHAR ydieresis
ENCODING 255
SWIDTH 500 0
DWIDTH 13 0
BBX 13 23 0 -5
BITMAP
1DC0
1DC0
1DC0
0000
0000
E038
7070
7070
7060
38E0
38E0
18C0
1DC0
1DC0
0D80
0F80
0F00
0700
0700
0E00
0E00
7C00
7800
ENDCHAR
STARTCHAR .notdef
ENCODING -1
SWIDTH 500 0
DWIDTH 13 0
BBX 11 13 1 0
BITMAP
FFE0
8020
8020
8020
8020
8020
8020
8020
8020
8020
8020
8020
FFE0
ENDCHAR
STARTCHAR quoteright
ENCODING -1
SWIDTH 278 0
DWIDTH 7 0
BBX 5 6 1 12
BITMAP
38
30
70
70
60
E0
ENDCHAR
STARTCHAR quoteleft
ENCODING -1
SWIDTH 278 0
DWIDTH 7 0
BBX 4 6 2 12
BITMAP
30
70
70
60
E0
E0
ENDCHAR
STARTCHAR fraction.dup2
ENCODING -1
SWIDTH 167 0
DWIDTH 4 0
BBX 13 20 -4 -1
BITMAP
0018
0030
0030
0060
0040
00C0
0180
0180
0300
0300
0600
0600
0C00
0800
1800
3000
3000
6000
6000
C000
ENDCHAR
STARTCHAR florin
ENCODING -1
SWIDTH 556 0
DWIDTH 14 0
BBX 12 23 1 -5
BITMAP
00F0
01F0
03C0
0380
0380
0780
0700
3FE0
3FE0
0700
0E00
0E00
0E00
0E00
0E00
0E00
1C00
1C00
1C00
1C00
3800
F800
F000
ENDCHAR
STARTCHAR quotedblleft
ENCODING -1
SWIDTH 556 0
DWIDTH 14 0
BBX 9 6 3 12
BITMAP
3180
7380
7380
6300
E700
E700
ENDCHAR
STARTCHAR guilsinglleft
ENCODING -1
SWIDTH 278 0
DWIDTH 7 0
BBX 6 11 1 2
BITMAP
0C
18
38
70
70
E0
70
70
38
18
0C
ENDCHAR
STARTCHAR guilsinglright
ENCODING -1
SWIDTH 278 0
DWIDTH 7 0
BBX 6 11 1 2
BITMAP
C0
60
70
38
38
1C
38
38
70
60
C0
ENDCHAR
STARTCHAR fi
ENCODING -1
SWIDTH 667 0
DWIDTH 17 0
BBX 14 19 1 0
BITMAP
07DC
0FDC
1E1C
1C00
1C00
1C00
FFDC
FFDC
1C1C
1C1C
1C1C
1C1C
1C1C
1C1C
1C1C
1C1C
1C1C
1C1C
1C1C
ENDCHAR
STARTCHAR fl
ENCODING -1
SWIDTH 667 0
DWIDTH 17 0
BBX 14 19 1 0
BITMAP
07DC
0FDC
1E1C
1C1C
1C1C
1C1C
FFDC
FFDC
1C1C
1C1C
1C1C
1C1C
1C1C
1C1C
1C1C
1C1C
1C1C
1C1C
1C1C
ENDCHAR
STARTCHAR endash
ENCODING -1
SWIDTH 500 0
DWIDTH 13 0
BBX 13 2 0 6
BITMAP
FFF8
FFF8
ENDCHAR
STARTCHAR dagger
ENCODING -1
SWIDTH 556 0
DWIDTH 14 0
BBX 10 18 2 0
BITMAP
0C00
0C00
0C00
0C00
0C00
FFC0
FFC0
0C00
0C00
0C00
0C00
0C00
0C00
0C00
0C00
0C00
0C00
0C00
ENDCHAR
STARTCHAR daggerdbl
ENCODING -1
SWIDTH 556 0
DWIDTH 14 0
BBX 11 18 2 0
BITMAP
0C00
0C00
0C00
0C00
FFE0
FFE0
0C00
0C00
0C00
0C00
0C00
0C00
FFE0
FFE0
0C00
0C00
0C00
0C00
ENDCHAR
STARTCHAR bullet
ENCODING -1
SWIDTH 500 0
DWIDTH 13 0
BBX 9 9 2 4
BITMAP
3C00
7F00
FF80
FF80
FF80
FF80
FF80
7F00
3E00
ENDCHAR
STARTCHAR quotesinglbase
ENCODING -1
SWIDTH 278 0
DWIDTH 7 0
BBX 5 6 1 -3
BITMAP
38
30
70
70
60
E0
ENDCHAR
STARTCHAR quotedblbase
ENCODING -1
SWIDTH 556 0
DWIDTH 14 0
BBX 10 6 2 -3
BITMAP
39C0
3180
7380
7380
6300
E700
ENDCHAR
STARTCHAR quotedblright
ENCODING -1
SWIDTH 556 0
DWIDTH 14 0
BBX 10 6 2 12
BITMAP
39C0
3180
7380
7380
6300
E700
ENDCHAR
STARTCHAR ellipsis
ENCODING -1
SWIDTH 1000 0
DWIDTH 26 0
BBX 21 3 3 0
BITMAP
E07038
E07038
E07038
ENDCHAR
STARTCHAR perthousand
ENCODING -1
SWIDTH 1000 0
DWIDTH 26 0
BBX 26 20 0 -1
BITMAP
00060000
3C0C0000
7E0C0000
E3180000
C3180000
C3300000
C3200000
C3600000
E7C00000
7EDE0F00
3DBF1F80
01F1B8C0
0361B0C0
0361B0C0
0661B0C0
0461B0C0
0C73B9C0
183F1F80
181E0F00
30000000
ENDCHAR
STARTCHAR circumflex
ENCODING -1
SWIDTH 278 0
DWIDTH 7 0
BBX 8 4 -1 15
BITMAP
18
3C
66
C3
ENDCHAR
STARTCHAR tilde
ENCODING -1
SWIDTH 278 0
DWIDTH 7 0
BBX 9 3 -1 15
BITMAP
7880
FF80
8F00
ENDCHAR
STARTCHAR breve
ENCODING -1
SWIDTH 278 0
DWIDTH 7 0
BBX 8 4 0 15
BITMAP
81
C3
7E
3C
ENDCHAR
STARTCHAR dotaccent
ENCODING -1
SWIDTH 278 0
DWIDTH 7 0
BBX 3 3 2 15
BITMAP
E0
E0
E0
ENDCHAR
STARTCHAR ring
ENCODING -1
SWIDTH 278 0
DWIDTH 7 0
BBX 5 5 1 15
BITMAP
70
88
88
98
70
ENDCHAR
STARTCHAR hungarumlaut
ENCODING -1
SWIDTH 278 0
DWIDTH 7 0
BBX 10 4 0 15
BITMAP
39C0
7380
6300
C600
ENDCHAR
STARTCHAR ogonek
ENCODING -1
SWIDTH 278 0
DWIDTH 7 0
BBX 5 5 2 -5
BITMAP
30
60
C0
C8
F0
ENDCHAR
STARTCHAR caron
ENCODING -1
SWIDTH 278 0
DWIDTH 7 0
BBX 8 4 -1 15
BITMAP
C3
66
3C
18
ENDCHAR
STARTCHAR emdash
ENCODING -1
SWIDTH 1000 0
DWIDTH 26 0
BBX 26 2 0 6
BITMAP
FFFFFFC0
FFFFFFC0
ENDCHAR
STARTCHAR OE
ENCODING -1
SWIDTH 944 0
DWIDTH 25 0
BBX 21 18 2 0
BITMAP
03FFF8
0FFFF8
3F1C00
781C00
701C00
E01C00
E01C00
E01C00
E01FF0
E01FF0
E01C00
E01C00
E01C00
701C00
781C00
3F1C00
0FFFF8
03FFF8
ENDCHAR
STARTCHAR dotlessi
ENCODING -1
SWIDTH 278 0
DWIDTH 7 0
BBX 3 13 2 0
BITMAP
E0
E0
E0
E0
E0
E0
E0
E0
E0
E0
E0
E0
E0
ENDCHAR
STARTCHAR oe
ENCODING -1
SWIDTH 944 0
DWIDTH 25 0
BBX 23 13 1 0
BITMAP
0FC1F0
1FF7F8
387E1C
703C0E
701C0E
F01FFE
E01FFE
E01C00
701C00
703E00
387704
1FF7FC
0FC1F8
ENDCHAR
STARTCHAR trademark
ENCODING -1
SWIDTH 990 0
DWIDTH 26 0
BBX 23 11 2 7
BITMAP
FF1C0E
FF1C1E
181E1E
181E16
181A36
181B36
181B66
1819E6
1819C6
1819C6
1818C6
ENDCHAR
STARTCHAR Ydieresis
ENCODING -1
SWIDTH 667 0
DWIDTH 17 0
BBX 17 22 0 0
BITMAP
077000
077000
000000
000000
E00380
700700
380E00
380E00
1C1C00
0E3800
0E7800
077000
03E000
03E000
01C000
01C000
01C000
01C000
01C000
01C000
01C000
01C000
ENDCHAR
STARTCHAR Lslash
ENCODING -1
SWIDTH 500 0
DWIDTH 13 0
BBX 12 18 0 0
BITMAP
3800
3800
3800
3800
3800
3800
3840
39C0
3F00
3E00
7800
F800
B800
3800
3800
3800
3FF0
3FF0
ENDCHAR
STARTCHAR lslash
ENCODING -1
SWIDTH 278 0
DWIDTH 7 0
BBX 7 19 0 0
BITMAP
38
38
38
38
38
3A
3E
3C
38
78
F8
B8
38
38
38
38
38
38
38
ENDCHAR
STARTCHAR minus
ENCODING -1
SWIDTH 600 0
DWIDTH 16 0
BBX 14 2 1 6
BITMAP
FFFC
FFFC
ENDCHAR
STARTCHAR Scaron
ENCODING -1
SWIDTH 500 0
DWIDTH 13 0
BBX 11 23 1 0
BITMAP
6180
3300
1E00
0C00
0000
1FC0
3FC0
78C0
E000
E000
E000
7800
7E00
3F00
0FC0
03C0
00E0
00E0
00E0
01E0
63C0
FF80
7E00
ENDCHAR
STARTCHAR scaron
ENCODING -1
SWIDTH 389 0
DWIDTH 10 0
BBX 10 19 0 0
BITMAP
C300
6600
3C00
1800
0000
0000
1F00
7F00
7000
7000
7000
7C00
1F00
0780
0380
03C0
8380
7F80
7E00
ENDCHAR
STARTCHAR Euro
ENCODING -1
SWIDTH 556 0
DWIDTH 14 0
BBX 15 18 0 0
BITMAP
00FC
03FE
0784
0E00
1C00
1C00
3800
FFF8
3800
3800
FFF8
3800
3C00
1C00
1E00
0F84
07FC
01FC
ENDCHAR
ENDFONT
